<svg width="144" height="221" viewBox="0 0 144 221" fill="none" xmlns="http://www.w3.org/2000/svg">
<path d="M16.6376 220.11C-8.14237 169.55 -5.15237 110.37 25.0076 66C50.7776 28.1 93.0676 5.64 131.128 1C135.288 0.49 139.508 0.16 143.738 0V73.27C142.508 73.36 141.288 73.48 140.068 73.62C134.378 74.31 128.788 75.64 123.428 77.57L119.658 78.93V98.45L102.768 88.7L99.7076 91.29C93.7276 96.11 83.3576 105.91 77.1176 121.66C65.3876 151.27 77.6176 178.27 80.0976 183.47C58.9476 195.68 37.7976 207.9 16.6376 220.11Z" fill="#696762"/>
</svg>
