<svg width="255" height="108" viewBox="0 0 255 108" fill="none" xmlns="http://www.w3.org/2000/svg">
<path d="M254.518 36.98C247.358 48.1 233.928 65.87 211.638 80.97C198.388 89.95 170.858 105.54 133.128 107.05C133.128 107.05 95.7477 108.53 62.7477 92.58C59.2377 90.88 56.5077 89.39 54.6377 88.36C46.7877 84 39.5077 78.74 39.5077 78.74C31.6277 73.04 24.3077 66.58 17.6277 59.41C11.1677 52.48 5.36766 44.96 0.347656 36.98L63.8077 0.339966C66.0177 3.57997 68.4777 6.64996 71.1477 9.50996C73.1677 11.68 75.3577 13.78 77.6777 15.75L80.7377 18.36L97.6477 8.58997V28.11L101.418 29.47C102.948 30.02 105.188 30.78 107.938 31.5C113.528 32.96 132.658 37.68 153.438 29.47C162.998 25.7 169.368 20.59 175.248 15.87C182.278 10.23 187.478 4.63997 191.048 0.339966C212.218 12.55 233.368 24.76 254.518 36.98Z" fill="#1DA61D"/>
</svg>
