<svg width="144" height="221" viewBox="0 0 144 221" fill="none" xmlns="http://www.w3.org/2000/svg">
<path d="M63.7676 183.47C68.4776 168.84 69.3076 156.43 69.2576 148.31C69.1976 138.59 69.1376 128.2 63.7676 116.58C59.4576 107.28 53.0776 100.08 50.7076 97.53C48.1976 94.83 45.8976 92.75 44.1776 91.28L41.1176 88.68L24.2176 98.44V78.93L20.4476 77.57C13.9076 75.21 7.09763 73.77 0.137634 73.26V0C23.6676 0.89 46.7476 7.31 67.2276 18.69C72.6076 21.68 77.7876 24.98 82.7476 28.59C87.5476 32.09 95.6276 38.41 104.228 47.64C107.978 51.67 118.538 63.43 127.238 79.94C147.948 119.21 144.138 158.65 142.838 169.11C141.378 180.86 137.698 199.3 127.238 220.11C106.078 207.9 84.9276 195.68 63.7676 183.47Z" fill="#FBB83D"/>
</svg>
